<?xml version="1.0" encoding="UTF-8"?>
<svg id="Layer_1" xmlns="http://www.w3.org/2000/svg" version="1.1" viewBox="0 0 295.84 107.31">
  <!-- Generator: Adobe Illustrator 29.3.1, SVG Export Plug-In . SVG Version: 2.1.0 Build 151)  -->
  <defs>
    <style>
      .st0 {
        fill: #282828;
      }
    </style>
  </defs>
  <g>
    <path class="st0" d="M44.31,24.51c-3.42-1.91-7.46-2.89-12.01-2.89-4.19,0-7.9.88-11.03,2.61-1.52.84-2.89,1.98-4.06,3.37V0H0v83.18h17.21v-35.12c0-2.23.44-4.17,1.3-5.76.86-1.58,2.1-2.84,3.68-3.73,1.59-.9,3.42-1.36,5.43-1.36s3.93.45,5.48,1.35c1.55.89,2.77,2.15,3.63,3.73.87,1.59,1.3,3.53,1.3,5.76v35.12h17.21v-38.6c0-4.55-.97-8.59-2.88-12.01-1.92-3.43-4.63-6.13-8.05-8.05Z"/>
    <path class="st0" d="M93.02,60.25l-13.59-37.02-.11-.3h-18.48l23.55,59.77-1.02,2.34c-.84,1.9-1.95,3.61-3.29,5.1-1.76,1.94-5.31,2.6-10.24,1.81-1.34-.21-2.53-.46-3.53-.75l-.58-.16v14.24l.24.13c1.26.67,2.75,1.16,4.43,1.46,1.66.29,3.39.44,5.13.44,3.67,0,7.04-.71,10.03-2.11,2.98-1.4,5.68-3.52,8.03-6.31,2.34-2.78,4.34-6.3,5.94-10.45l25.68-65.5h-18.48l-13.7,37.32Z"/>
    <rect class="st0" x="133.07" y="0" width="17.21" height="83.18"/>
    <path class="st0" d="M293.86,39.7c-1.32-3.55-3.27-6.73-5.8-9.44-2.53-2.72-5.68-4.86-9.34-6.36-3.67-1.5-7.93-2.26-12.67-2.26-5.71,0-10.9,1.37-15.45,4.09-4.54,2.71-8.2,6.46-10.87,11.14-2.67,4.68-4.03,10.1-4.03,16.09s1.3,11.11,3.86,15.87c2.56,4.76,6.24,8.6,10.92,11.42,4.69,2.82,10.29,4.25,16.65,4.25,4.09,0,7.9-.61,11.34-1.82,3.44-1.21,6.47-2.94,9.01-5.14,2.54-2.21,4.43-4.83,5.61-7.78l.16-.39-13.8-6.56-.21.36c-1.11,1.95-2.69,3.5-4.67,4.61-1.98,1.11-4.42,1.68-7.22,1.68-3.09,0-5.75-.69-7.91-2.05-2.16-1.36-3.78-3.28-4.82-5.72-.47-1.1-.81-2.31-1.02-3.61h41.35l.11-.3c.3-.84.51-1.84.62-2.99.11-1.12.16-2.29.16-3.47,0-4.17-.67-8.08-1.98-11.62ZM266.05,35.58c2.79,0,5.17.68,7.07,2.04,1.9,1.35,3.25,3.21,4.02,5.53.2.6.34,1.26.44,2.07h-23.5c.17-.67.35-1.25.55-1.78.98-2.58,2.46-4.56,4.4-5.87,1.94-1.32,4.31-1.99,7.03-1.99Z"/>
  </g>
  <path class="st0" d="M176.13,25.82c4.61-2.78,9.85-4.19,15.56-4.19.17,0,.32.09.4.24l8.91,16.27c.09.17.07.39-.07.53-.14.14-.35.18-.53.09-2.02-1.02-4.26-1.54-6.64-1.54-2.94,0-5.57.69-7.81,2.05-2.24,1.36-4.01,3.24-5.27,5.59-1.26,2.35-1.9,5.11-1.9,8.21,0,3.1.64,5.88,1.9,8.26,1.26,2.38,3.03,4.26,5.27,5.58,2.24,1.33,4.86,2,7.81,2,2.8,0,5.34-.67,7.54-2,2.2-1.33,3.93-3.2,5.16-5.58,1.23-2.38,1.85-5.17,1.85-8.27V.45c0-.25.2-.45.45-.45h16.3c.25,0,.45.2.45.45v82.28c0,.25-.2.45-.45.45h-15.22c-.25,0-.45-.2-.45-.45v-4.57c-1.76,1.69-3.82,3.05-6.16,4.06-3.48,1.5-7.33,2.27-11.43,2.27-5.85,0-11.16-1.41-15.78-4.2-4.61-2.78-8.3-6.6-10.97-11.36-2.67-4.76-4.03-10.1-4.03-15.87,0-5.85,1.37-11.21,4.08-15.93,2.71-4.72,6.42-8.52,11.03-11.3Z"/>
</svg>